<?xml version="1.0" encoding="utf-8"?>
<!-- Generator: Adobe Illustrator 21.0.2, SVG Export Plug-In . SVG Version: 6.00 Build 0)  -->
<svg version="1.1" id="Слой_1" xmlns="http://www.w3.org/2000/svg" xmlns:xlink="http://www.w3.org/1999/xlink" x="0px" y="0px"
	 viewBox="0 0 291.1 67.4" style="enable-background:new 0 0 291.1 67.4;" xml:space="preserve">
<style type="text/css">
	.st0{fill:#66C1FF;}
	.st1{fill:#FFCF0E;}
	.st2{display:none;}
	.st3{display:inline;}
	.st4{fill:#FFFFFF;}
</style>
<g>
	<path class="st0" d="M36.3,66.2V37h21c2.2,0,4,0.2,5.5,0.7c1.5,0.5,2.6,1.3,3.4,2.3s1.1,2.5,1.1,4.3c0,2.2-0.3,3.7-0.8,4.6
		c-0.6,0.8-1.5,1.5-2.8,1.9c1.6,0.5,2.8,1.3,3.6,2.2s1.1,2.5,1.1,4.6s-0.4,3.7-1,5s-1.8,2.2-3.2,2.7c-1.4,0.6-3.3,0.8-5.5,0.8
		L36.3,66.2L36.3,66.2z M43.2,42.5v6.3h14.2c0.9,0,1.6-0.3,2.2-0.9s0.8-1.4,0.8-2.4c0-0.9-0.3-1.6-0.8-2.1s-1.3-0.8-2.2-0.8
		L43.2,42.5L43.2,42.5z M43.2,54v6.7h14c1.2,0,2.2-0.1,2.7-0.3c0.6-0.2,1-0.5,1.2-1s0.3-1.2,0.3-2.1c0-0.8-0.1-1.5-0.3-1.9
		s-0.5-0.8-1.1-1S58.6,54,57.4,54H43.2L43.2,54z"/>
	<path class="st0" d="M106.3,66.2h-7v-4.5c0-1.4-0.4-2.5-1.3-3.1s-2.3-1-4.3-1H80.3v8.6h-7V37h22.1c1.6,0,3.1,0.2,4.3,0.5
		c1.2,0.3,2.3,0.8,3.2,1.6c0.9,0.8,1.6,1.8,2.1,3.1s0.7,3,0.7,5s-0.4,3.6-1.1,4.7c-0.8,1.1-1.8,2.1-3.1,2.9c1.3,0.5,2.2,0.9,2.7,1.1
		c0.5,0.3,1,0.7,1.4,1.4s0.6,1.6,0.6,2.7v6.2H106.3z M80.3,42.8v8.9h14.6c1.5,0,2.5-0.3,3.1-1s0.9-1.8,0.9-3.4
		c0-1.6-0.3-2.7-0.9-3.4s-1.6-1-3.1-1L80.3,42.8L80.3,42.8z"/>
	<path class="st0" d="M118.8,66.2h-7V37h7V66.2z"/>
	<path class="st0" d="M152.1,46c0-1.2-0.4-2.1-1.2-2.6s-2.1-0.8-4.1-0.8h-10.3c-2.1,0-3.5,0.4-4.3,1.3c-0.8,0.9-1.2,2.4-1.3,4.6
		l-0.1,7c0,1.4,0.2,2.4,0.5,3.1c0.3,0.7,0.8,1.2,1.6,1.5s2,0.5,3.5,0.5h10.3c1.4,0,2.5-0.1,3.3-0.3s1.4-0.5,1.7-0.9
		c0.4-0.4,0.6-1,0.6-1.7v-3.6h-11.5v-5.2h18.5v7.8c0,2.3-0.4,4.1-1.1,5.5s-1.8,2.3-3.4,2.9c-1.5,0.6-3.6,0.9-6.1,0.9h-14.1
		c-2.4,0-4.4-0.3-6-1c-1.6-0.7-2.8-1.8-3.6-3.2c-0.8-1.5-1.2-3.4-1.2-5.7v-8.6c0-2.6,0.4-4.7,1.1-6.2s1.9-2.6,3.4-3.3
		c1.5-0.7,3.6-1,6.2-1h14c1.9,0,3.5,0.1,4.7,0.4c1.3,0.3,2.4,0.7,3.3,1.4c0.9,0.6,1.5,1.6,2,2.7c0.4,1.2,0.7,2.7,0.7,4.5
		C159.2,46,152.1,46,152.1,46z"/>
	<path class="st0" d="M169.6,66.2h-8.1L176.9,37h10.3l15.3,29.1h-8.2l-3.7-7.3h-17.2L169.6,66.2z M176.2,53.3h11.6l-5.5-10.8H182
		L176.2,53.3z"/>
	<path class="st0" d="M205,37h22.5c1.8,0,3.4,0.2,4.7,0.6c1.3,0.4,2.4,1,3.2,1.9c0.8,0.8,1.4,1.9,1.9,3.3c0.4,1.3,0.6,3,0.6,4.9v7.7
		c0,2.5-0.3,4.6-1,6.2c-0.7,1.6-1.8,2.7-3.3,3.5s-3.5,1.1-6,1.1H205V37z M211.9,60.4h12.5c1.7,0,3-0.2,3.9-0.5s1.5-0.9,1.9-1.6
		c0.3-0.7,0.5-1.7,0.5-2.9v-7.6c0-1.7-0.4-3-1.3-3.8s-2.6-1.2-5-1.2h-12.5L211.9,60.4L211.9,60.4z"/>
	<path class="st0" d="M250.7,66.2h-7V37h7V66.2z"/>
	<path class="st0" d="M289.3,66.2h-7v-4.5c0-1.4-0.4-2.5-1.3-3.1c-0.8-0.6-2.3-1-4.3-1h-13.5v8.6h-7V37h22.1c1.6,0,3.1,0.2,4.3,0.5
		c1.2,0.3,2.3,0.8,3.2,1.6c0.9,0.8,1.6,1.8,2.1,3.1s0.7,3,0.7,5s-0.4,3.6-1.1,4.7c-0.8,1.1-1.8,2.1-3.1,2.9c1.3,0.5,2.2,0.9,2.7,1.1
		c0.5,0.3,1,0.7,1.4,1.4s0.6,1.6,0.6,2.7v6.2H289.3z M263.2,42.8v8.9h14.6c1.5,0,2.5-0.3,3.1-1s0.9-1.8,0.9-3.4
		c0-1.6-0.3-2.7-0.9-3.4s-1.6-1-3.1-1L263.2,42.8L263.2,42.8z"/>
</g>
<path class="st0" d="M26.4,30.8h-22c-2.4,0-4.4-2-4.4-4.4v-22C0,2,2,0,4.4,0h22c2.4,0,4.4,2,4.4,4.4v22
	C30.8,28.8,28.8,30.8,26.4,30.8z"/>
<path class="st1" d="M26.4,67.4h-22C2,67.4,0,65.4,0,63V41c0-2.4,2-4.4,4.4-4.4h22c2.4,0,4.4,2,4.4,4.4v22
	C30.8,65.4,28.8,67.4,26.4,67.4z"/>
<path class="st1" d="M62.5,30.8h-22c-2.4,0-4.4-2-4.4-4.4v-22c0-2.4,2-4.4,4.4-4.4h22c2.4,0,4.4,2,4.4,4.4v22
	C66.9,28.8,64.9,30.8,62.5,30.8z"/>
<g class="st2">
	<path class="st3" d="M80.6,29.7h-4.3c-0.9,0-1.6-0.1-2.1-0.4s-0.9-0.7-1.1-1.3c-0.2-0.6-0.3-1.5-0.3-2.6V22c0-1.2,0.1-2.1,0.4-2.7
		c0.2-0.6,0.6-1.1,1.1-1.3c0.5-0.3,1.3-0.4,2.2-0.4h3.8c0.8,0,1.5,0.1,2,0.3c0.5,0.2,1,0.7,1.3,1.3c0.3,0.6,0.4,1.5,0.4,2.5h-2.4
		c0-0.6-0.1-1.1-0.4-1.4C81,20.1,80.6,20,80,20h-3c-0.5,0-0.9,0-1.2,0.1c-0.3,0.1-0.4,0.3-0.5,0.6c-0.1,0.3-0.1,0.8-0.1,1.4v3
		c0,0.6,0.1,1.1,0.2,1.4s0.3,0.5,0.6,0.6c0.3,0.1,0.6,0.2,1.1,0.2H80c0.5,0,0.8,0,1.1-0.1c0.2-0.1,0.4-0.3,0.5-0.5
		c0.1-0.3,0.2-0.6,0.2-1.1h2.4c0,1.1-0.1,2-0.3,2.6c-0.2,0.6-0.5,1-1,1.3S81.6,29.7,80.6,29.7z"/>
	<path class="st3" d="M88.4,23.1h-3.3v-2H94v2h-3.3v6.6h-2.3C88.4,29.7,88.4,23.1,88.4,23.1z"/>
	<path class="st3" d="M99.2,21.1h2.1c1,0,1.7,0.3,2.2,0.9s0.8,1.4,0.8,2.5v1.9c0,0.6-0.1,1.2-0.3,1.7c-0.2,0.5-0.6,0.9-1,1.2
		c-0.5,0.3-1,0.4-1.7,0.4h-2.1c-0.5,0-0.9-0.1-1.2-0.4c-0.4-0.2-0.6-0.5-0.8-0.8v4.6h-2.3v-12h2.3v1c0.3-0.3,0.5-0.6,0.8-0.7
		C98.3,21.2,98.7,21.1,99.2,21.1z M101.9,26.1v-1.4c0-1.1-0.5-1.6-1.6-1.6h-1.6c-0.5,0-0.9,0.1-1.1,0.4s-0.4,0.7-0.4,1.2v1.4
		c0,1.1,0.5,1.6,1.5,1.6h1.6C101.4,27.7,101.9,27.2,101.9,26.1z"/>
	<path class="st3" d="M108.5,21.1h3.2c0.6,0,1.2,0.1,1.6,0.4s0.8,0.7,1,1.2s0.3,1.1,0.3,1.8v1.8c0,0.7-0.1,1.2-0.4,1.7
		c-0.2,0.5-0.6,0.9-1,1.2c-0.4,0.3-1,0.4-1.6,0.4h-3.2c-0.6,0-1.2-0.1-1.6-0.4c-0.5-0.3-0.8-0.7-1-1.2s-0.4-1.1-0.4-1.8v-1.8
		c0-0.6,0.1-1.2,0.3-1.7s0.6-0.9,1-1.2C107.3,21.3,107.8,21.1,108.5,21.1z M112.4,24.7c0-1.1-0.5-1.6-1.5-1.6h-1.6
		c-0.5,0-0.9,0.1-1.2,0.4c-0.3,0.3-0.4,0.7-0.4,1.2v1.4c0,0.5,0.1,0.9,0.4,1.2c0.3,0.3,0.6,0.4,1.2,0.4h1.6c0.5,0,0.9-0.1,1.1-0.4
		c0.2-0.2,0.4-0.7,0.4-1.2V24.7z"/>
	<path class="st3" d="M116.1,29.7v-8.6h2.1v6.6h0.3l3.5-6.6h0.8h2.4v8.6h-2.1v-6.6h-0.3l-3.4,6.6h-1.3H116.1z"/>
	<path class="st3" d="M129.6,23.1h-3.3v-2h8.9v2h-3.3v6.6h-2.3L129.6,23.1L129.6,23.1z"/>
	<path class="st3" d="M138.4,29.7c-0.9,0-1.6-0.3-2.1-0.9s-0.7-1.4-0.7-2.4v-2.2c0-0.5,0.1-1.1,0.3-1.5c0.2-0.5,0.5-0.9,1-1.2
		c0.4-0.3,1-0.5,1.6-0.5h3.3c1,0,1.8,0.3,2.2,1c0.5,0.7,0.7,1.5,0.7,2.5V26h-6.8v0.3c0,1,0.4,1.6,1.1,1.6h2.7c0.2,0,0.4-0.1,0.6-0.2
		s0.2-0.4,0.2-0.6v-0.2h2.2v0.2c0,1.8-1,2.7-2.9,2.7L138.4,29.7L138.4,29.7z M142.5,24.4L142.5,24.4c0-1-0.4-1.6-1.3-1.6h-2.1
		c-0.8,0-1.2,0.5-1.2,1.6H142.5z"/>
	<path class="st3" d="M154.6,21.1v8.6h-2.3v-6.6h-3.5v3c0,1.2-0.2,2.1-0.7,2.7c-0.4,0.6-1.1,0.9-2,0.9h-1v-2c0.4,0,0.7,0,0.9-0.1
		s0.3-0.3,0.4-0.5c0.1-0.3,0.1-0.7,0.1-1.3v-4.6h8.1V21.1z"/>
	<path class="st3" d="M165.5,27.5c0,0.7-0.2,1.3-0.6,1.6s-1,0.6-1.7,0.6h-6.8v-8.6h2.3v3.1h4.1c1,0,1.7,0.2,2.2,0.6
		c0.4,0.4,0.6,1,0.6,1.7v1C165.6,27.5,165.5,27.5,165.5,27.5z M158.7,26v1.9h3.5c0.4,0,0.7-0.1,0.9-0.2s0.2-0.4,0.2-0.7
		c0-0.4-0.1-0.6-0.2-0.8c-0.2-0.1-0.4-0.2-0.9-0.2C162.2,26,158.7,26,158.7,26z"/>
	<path class="st3" d="M167,29.7v-8.6h2.3V24h4.6v-2.9h2.3v8.6h-2.3V26h-4.6v3.7H167z"/>
	<path class="st3" d="M177.7,26.5c0-0.5,0.1-0.9,0.3-1.3s0.5-0.6,0.9-0.8c0.4-0.2,1-0.3,1.7-0.3h2.8c0.3,0,0.6,0.1,0.8,0.2
		s0.4,0.3,0.5,0.6v-1.1c0-0.4-0.1-0.7-0.3-0.8s-0.5-0.2-1-0.2H181c-0.4,0-0.6,0-0.7,0.1c-0.1,0.1-0.2,0.2-0.2,0.3v0.3h-2.2
		c0-0.8,0.2-1.4,0.6-1.8c0.4-0.4,1.1-0.7,2.1-0.7h3.4c0.7,0,1.3,0.1,1.7,0.4s0.7,0.6,0.9,1.1s0.3,1,0.3,1.6v5.6h-2.3v-1
		c-0.2,0.4-0.4,0.6-0.6,0.8c-0.2,0.1-0.5,0.2-0.8,0.2H180c-0.7,0-1.3-0.2-1.7-0.6s-0.6-0.9-0.6-1.6V26.5z M181.1,26
		c-0.4,0-0.7,0.1-0.9,0.2S180,26.6,180,27c0,0.2,0,0.4,0.1,0.6c0.1,0.1,0.2,0.2,0.3,0.3c0.2,0.1,0.4,0.1,0.7,0.1h2.4
		c0.4,0,0.7-0.1,0.9-0.2s0.2-0.4,0.2-0.7s-0.1-0.6-0.2-0.8c-0.2-0.1-0.5-0.2-0.9-0.2L181.1,26L181.1,26z"/>
	<path class="st3" d="M188.4,23.3c0-0.7,0.2-1.3,0.6-1.6c0.4-0.4,1-0.5,1.7-0.5h6.8v8.6h-2.3v-3.1h-2l-2.2,3.1h-2.8l2.4-3.1
		c-0.7,0-1.2-0.2-1.6-0.6c-0.4-0.4-0.6-1-0.6-1.7L188.4,23.3L188.4,23.3z M195.2,24.8v-1.9h-3.5c-0.4,0-0.7,0.1-0.9,0.2
		s-0.2,0.4-0.2,0.7c0,0.4,0.1,0.6,0.2,0.8c0.2,0.1,0.4,0.2,0.9,0.2C191.7,24.8,195.2,24.8,195.2,24.8z"/>
	<path class="st3" d="M203.8,29.7v-8.6h2.3v3.1h0.8l2.3-3.1h2.6l-3.2,4l3.5,4.6h-2.7L207,26h-0.8v3.7H203.8z"/>
	<path class="st3" d="M215.8,21.1h3.2c0.6,0,1.2,0.1,1.6,0.4s0.8,0.7,1,1.2s0.3,1.1,0.3,1.8v1.8c0,0.7-0.1,1.2-0.4,1.7
		c-0.2,0.5-0.6,0.9-1,1.2c-0.4,0.3-1,0.4-1.6,0.4h-3.2c-0.6,0-1.2-0.1-1.6-0.4c-0.5-0.3-0.8-0.7-1-1.2s-0.4-1.1-0.4-1.8v-1.8
		c0-0.6,0.1-1.2,0.3-1.7s0.6-0.9,1-1.2C214.6,21.3,215.1,21.1,215.8,21.1z M219.7,24.7c0-1.1-0.5-1.6-1.5-1.6h-1.6
		c-0.5,0-0.9,0.1-1.2,0.4s-0.4,0.7-0.4,1.2v1.4c0,0.5,0.1,0.9,0.4,1.2c0.3,0.3,0.6,0.4,1.2,0.4h1.6c0.5,0,0.9-0.1,1.1-0.4
		c0.2-0.2,0.4-0.7,0.4-1.2V24.7z"/>
	<path class="st3" d="M223.7,21.1h3.5l2.2,6.6h0.3l2.2-6.6h3.5v8.6h-2.1v-6.6H233l-2.3,6.6h-2.4l-2.3-6.6h-0.3v6.6h-2.1v-8.6H223.7z
		"/>
	<path class="st3" d="M236.8,29.7v-8.6h9.2v8.6h-2.3v-6.6h-4.6v6.6H236.8z"/>
	<path class="st3" d="M247.6,26.5c0-0.5,0.1-0.9,0.3-1.3s0.5-0.6,0.9-0.8c0.4-0.2,1-0.3,1.7-0.3h2.8c0.3,0,0.6,0.1,0.8,0.2
		s0.4,0.3,0.5,0.6v-1.1c0-0.4-0.1-0.7-0.3-0.8s-0.5-0.2-1-0.2h-2.4c-0.4,0-0.6,0-0.7,0.1c-0.1,0.1-0.2,0.2-0.2,0.3v0.3h-2.2
		c0-0.8,0.2-1.4,0.6-1.8c0.4-0.4,1.1-0.7,2.1-0.7h3.4c0.7,0,1.3,0.1,1.7,0.4c0.4,0.3,0.7,0.6,0.9,1.1s0.3,1,0.3,1.6v5.6h-2.3v-1
		c-0.2,0.4-0.4,0.6-0.6,0.8c-0.2,0.1-0.5,0.2-0.8,0.2H250c-0.7,0-1.3-0.2-1.7-0.6s-0.6-0.9-0.6-1.6L247.6,26.5L247.6,26.5z
		 M250.9,26c-0.4,0-0.7,0.1-0.9,0.2s-0.2,0.4-0.2,0.8c0,0.2,0,0.4,0.1,0.6c0.1,0.1,0.2,0.2,0.3,0.3c0.2,0.1,0.4,0.1,0.7,0.1h2.4
		c0.4,0,0.7-0.1,0.9-0.2s0.2-0.4,0.2-0.7s-0.1-0.6-0.2-0.8c-0.2-0.1-0.5-0.2-0.9-0.2L250.9,26L250.9,26z"/>
	<path class="st3" d="M258.2,29.7v-8.6h2.3V24h4.6v-2.9h2.3v8.6H265V26h-4.6v3.7H258.2z"/>
	<path class="st3" d="M268.9,29.7v-8.6h2.1v6.6h0.3l3.5-6.6h0.8h2.4v8.6h-2.1v-6.6h-0.3l-3.4,6.6h-1.3H268.9z"/>
	<path class="st3" d="M279.5,23.3c0-0.7,0.2-1.3,0.6-1.6c0.4-0.4,1-0.5,1.7-0.5h6.8v8.6h-2.3v-3.1h-2l-2.2,3.1h-2.8l2.4-3.1
		c-0.7,0-1.2-0.2-1.6-0.6s-0.6-1-0.6-1.7V23.3z M286.3,24.8v-1.9h-3.5c-0.4,0-0.7,0.1-0.9,0.2c-0.2,0.1-0.2,0.4-0.2,0.7
		c0,0.4,0.1,0.6,0.2,0.8c0.2,0.1,0.4,0.2,0.9,0.2C282.8,24.8,286.3,24.8,286.3,24.8z"/>
</g>
<g>
	<path class="st4" d="M83.7,26.2c-0.2,1.4-0.7,2.5-1.6,3.3c-0.9,0.8-2.1,1.2-3.5,1.2c-1.6,0-2.9-0.6-3.8-1.7c-1-1.1-1.4-2.7-1.4-4.6
		v-1.3c0-1.3,0.2-2.4,0.7-3.3c0.4-1,1.1-1.7,1.9-2.2c0.8-0.5,1.8-0.8,2.9-0.8c1.4,0,2.6,0.4,3.5,1.2c0.9,0.8,1.4,1.9,1.5,3.3h-1.8
		c-0.2-1.1-0.5-1.9-1-2.3c-0.5-0.5-1.2-0.7-2.2-0.7c-1.1,0-2,0.4-2.7,1.3c-0.6,0.8-1,2-1,3.6v1.3c0,1.5,0.3,2.6,0.9,3.5
		c0.6,0.9,1.5,1.3,2.6,1.3c1,0,1.8-0.2,2.3-0.7c0.5-0.4,0.9-1.2,1.1-2.3H83.7z"/>
	<path class="st4" d="M93.3,21.8H90v8.7h-1.7v-8.7h-3.3v-1.4h8.4V21.8z"/>
	<path class="st4" d="M103.5,25.6c0,1.5-0.3,2.8-1,3.7c-0.7,0.9-1.6,1.4-2.8,1.4c-1.2,0-2.2-0.4-2.9-1.2v4.8H95V20.5h1.6l0.1,1.1
		c0.7-0.9,1.7-1.3,2.9-1.3c1.2,0,2.2,0.5,2.9,1.4c0.7,0.9,1.1,2.2,1.1,3.8V25.6z M101.8,25.4c0-1.1-0.2-2-0.7-2.7
		c-0.5-0.7-1.1-1-2-1c-1,0-1.8,0.5-2.3,1.4v4.8c0.5,0.9,1.3,1.4,2.4,1.4c0.8,0,1.5-0.3,2-1S101.8,26.7,101.8,25.4z"/>
	<path class="st4" d="M105.2,25.4c0-1,0.2-1.9,0.6-2.7c0.4-0.8,0.9-1.4,1.6-1.8c0.7-0.4,1.5-0.6,2.4-0.6c1.4,0,2.5,0.5,3.3,1.4
		s1.3,2.2,1.3,3.8v0.1c0,1-0.2,1.9-0.6,2.6c-0.4,0.8-0.9,1.4-1.6,1.8c-0.7,0.4-1.5,0.6-2.4,0.6c-1.4,0-2.5-0.5-3.3-1.4
		s-1.3-2.2-1.3-3.8V25.4z M106.9,25.6c0,1.1,0.3,2,0.8,2.7c0.5,0.7,1.2,1,2.1,1c0.9,0,1.6-0.3,2.1-1c0.5-0.7,0.8-1.6,0.8-2.9
		c0-1.1-0.3-2-0.8-2.7c-0.5-0.7-1.2-1-2.1-1c-0.8,0-1.5,0.3-2.1,1C107.2,23.4,106.9,24.3,106.9,25.6z"/>
	<path class="st4" d="M123,20.5h1.7v10H123v-7.3l-4.6,7.3h-1.7v-10h1.7v7.3L123,20.5z"/>
	<path class="st4" d="M134.9,21.8h-3.4v8.7h-1.7v-8.7h-3.3v-1.4h8.4V21.8z"/>
	<path class="st4" d="M140,30.7c-1.4,0-2.5-0.4-3.3-1.3c-0.9-0.9-1.3-2.1-1.3-3.6v-0.3c0-1,0.2-1.9,0.6-2.7c0.4-0.8,0.9-1.4,1.6-1.8
		c0.7-0.4,1.4-0.7,2.2-0.7c1.3,0,2.3,0.4,3,1.3c0.7,0.9,1.1,2.1,1.1,3.7V26h-6.8c0,1,0.3,1.8,0.9,2.4c0.6,0.6,1.3,0.9,2.1,0.9
		c0.6,0,1.1-0.1,1.5-0.4s0.8-0.6,1.1-1l1,0.8C143,30,141.7,30.7,140,30.7z M139.8,21.7c-0.7,0-1.3,0.3-1.7,0.8
		c-0.5,0.5-0.8,1.2-0.9,2.1h5v-0.1c0-0.9-0.3-1.5-0.7-2C141.1,21.9,140.5,21.7,139.8,21.7z"/>
	<path class="st4" d="M154.2,20.5v10h-1.7v-8.6H149l-0.2,3.8c-0.1,1.7-0.4,3-0.9,3.7s-1.2,1.1-2.2,1.2h-0.7V29l0.5,0
		c0.6-0.1,1-0.4,1.2-1c0.2-0.6,0.4-1.7,0.5-3.2l0.2-4.3H154.2z"/>
	<path class="st4" d="M158.8,23.9h2.6c1.1,0,2,0.3,2.7,0.9c0.7,0.6,1,1.4,1,2.4c0,1-0.3,1.8-1,2.4s-1.6,0.9-2.7,0.9h-4.3v-10h1.7
		V23.9z M158.8,25.3v3.8h2.6c0.6,0,1.1-0.2,1.5-0.5s0.5-0.8,0.5-1.4c0-0.6-0.2-1-0.5-1.4c-0.3-0.4-0.8-0.5-1.4-0.6H158.8z"/>
	<path class="st4" d="M175.5,30.5h-1.7v-4.3h-4.6v4.3h-1.7v-10h1.7v4.4h4.6v-4.4h1.7V30.5z"/>
	<path class="st4" d="M184.4,30.5c-0.1-0.2-0.2-0.6-0.2-1.1c-0.8,0.8-1.8,1.2-2.9,1.2c-1,0-1.8-0.3-2.4-0.8c-0.6-0.6-1-1.3-1-2.1
		c0-1,0.4-1.9,1.2-2.4c0.8-0.6,1.9-0.9,3.4-0.9h1.7v-0.8c0-0.6-0.2-1.1-0.5-1.4c-0.4-0.4-0.9-0.5-1.6-0.5c-0.6,0-1.1,0.2-1.5,0.5
		c-0.4,0.3-0.6,0.7-0.6,1.1h-1.7c0-0.5,0.2-1,0.5-1.5c0.4-0.5,0.8-0.8,1.4-1.1c0.6-0.3,1.3-0.4,2-0.4c1.2,0,2.1,0.3,2.7,0.9
		c0.7,0.6,1,1.4,1,2.4v4.6c0,0.9,0.1,1.7,0.4,2.2v0.1H184.4z M181.6,29.2c0.5,0,1-0.1,1.5-0.4c0.5-0.3,0.8-0.6,1-1.1v-2.1h-1.3
		c-2.1,0-3.2,0.6-3.2,1.8c0,0.5,0.2,1,0.5,1.3C180.6,29,181,29.2,181.6,29.2z"/>
	<path class="st4" d="M196.2,20.5v10h-1.7v-3.9h-2.6l-2.4,3.9h-1.9l2.5-4.2c-0.6-0.2-1.1-0.6-1.5-1.1c-0.3-0.5-0.5-1.1-0.5-1.7
		c0-0.9,0.3-1.7,1-2.2c0.7-0.6,1.6-0.8,2.8-0.8H196.2z M190,23.5c0,0.5,0.2,0.9,0.5,1.2s0.8,0.5,1.3,0.5h2.7v-3.3H192
		c-0.6,0-1.1,0.2-1.5,0.5C190.1,22.6,190,23,190,23.5z"/>
	<path class="st4" d="M206.8,26.2h-1.3v4.3h-1.7v-10h1.7v4.3h1.1l3.4-4.3h2.1l-4,4.8l4.3,5.2h-2.2L206.8,26.2z"/>
	<path class="st4" d="M213.3,25.4c0-1,0.2-1.9,0.6-2.7c0.4-0.8,0.9-1.4,1.6-1.8c0.7-0.4,1.5-0.6,2.4-0.6c1.4,0,2.5,0.5,3.3,1.4
		s1.3,2.2,1.3,3.8v0.1c0,1-0.2,1.9-0.6,2.6c-0.4,0.8-0.9,1.4-1.6,1.8c-0.7,0.4-1.5,0.6-2.4,0.6c-1.4,0-2.5-0.5-3.3-1.4
		s-1.3-2.2-1.3-3.8V25.4z M215,25.6c0,1.1,0.3,2,0.8,2.7c0.5,0.7,1.2,1,2.1,1c0.9,0,1.6-0.3,2.1-1s0.8-1.6,0.8-2.9
		c0-1.1-0.3-2-0.8-2.7c-0.5-0.7-1.2-1-2.1-1c-0.8,0-1.5,0.3-2.1,1C215.3,23.4,215,24.3,215,25.6z"/>
	<path class="st4" d="M230.4,28.2l3.4-7.8h2.1v10h-1.7v-7.3l-3.2,7.3h-1.2l-3.3-7.5v7.5h-1.7v-10h2.2L230.4,28.2z"/>
	<path class="st4" d="M246.9,30.5h-1.7v-8.6h-4.6v8.6h-1.7v-10h8.1V30.5z"/>
	<path class="st4" d="M255.9,30.5c-0.1-0.2-0.2-0.6-0.2-1.1c-0.8,0.8-1.8,1.2-2.9,1.2c-1,0-1.8-0.3-2.4-0.8c-0.6-0.6-1-1.3-1-2.1
		c0-1,0.4-1.9,1.2-2.4c0.8-0.6,1.9-0.9,3.4-0.9h1.7v-0.8c0-0.6-0.2-1.1-0.5-1.4c-0.4-0.4-0.9-0.5-1.6-0.5c-0.6,0-1.1,0.2-1.5,0.5
		c-0.4,0.3-0.6,0.7-0.6,1.1h-1.7c0-0.5,0.2-1,0.5-1.5c0.4-0.5,0.8-0.8,1.4-1.1c0.6-0.3,1.3-0.4,2-0.4c1.2,0,2.1,0.3,2.7,0.9
		c0.7,0.6,1,1.4,1,2.4v4.6c0,0.9,0.1,1.7,0.4,2.2v0.1H255.9z M253,29.2c0.5,0,1-0.1,1.5-0.4c0.5-0.3,0.8-0.6,1-1.1v-2.1h-1.3
		c-2.1,0-3.2,0.6-3.2,1.8c0,0.5,0.2,1,0.5,1.3C252,29,252.5,29.2,253,29.2z"/>
	<path class="st4" d="M268.2,30.5h-1.7v-4.3h-4.6v4.3h-1.7v-10h1.7v4.4h4.6v-4.4h1.7V30.5z"/>
	<path class="st4" d="M277.5,20.5h1.7v10h-1.7v-7.3l-4.6,7.3h-1.7v-10h1.7v7.3L277.5,20.5z"/>
	<path class="st4" d="M289.6,20.5v10h-1.7v-3.9h-2.6l-2.4,3.9h-1.9l2.5-4.2c-0.6-0.2-1.1-0.6-1.5-1.1c-0.3-0.5-0.5-1.1-0.5-1.7
		c0-0.9,0.3-1.7,1-2.2c0.7-0.6,1.6-0.8,2.8-0.8H289.6z M283.4,23.5c0,0.5,0.2,0.9,0.5,1.2s0.8,0.5,1.3,0.5h2.7v-3.3h-2.5
		c-0.6,0-1.1,0.2-1.5,0.5C283.5,22.6,283.4,23,283.4,23.5z"/>
</g>
</svg>
