<svg id="Слой_1" data-name="Слой 1" xmlns="http://www.w3.org/2000/svg" viewBox="0 0 50 40"><defs><style>.cls-1{fill:#fff;}.cls-2{fill:none;stroke:#fff;stroke-miterlimit:10;stroke-width:2px;}</style></defs><title>Menu</title><path class="cls-1" d="M45.53,6.79a2.69,2.69,0,0,1,2.68,2.68V40.53a2.69,2.69,0,0,1-2.68,2.68H4.47a2.69,2.69,0,0,1-2.68-2.68V9.47A2.69,2.69,0,0,1,4.47,6.79H45.53m0-1.79H4.47A4.49,4.49,0,0,0,0,9.47V40.53A4.49,4.49,0,0,0,4.47,45H45.53A4.49,4.49,0,0,0,50,40.53V9.47A4.49,4.49,0,0,0,45.53,5Z" transform="translate(0 -5)"/><line class="cls-2" x1="10" y1="20" x2="40" y2="20"/><line class="cls-2" x1="10" y1="30" x2="40" y2="30"/><line class="cls-2" x1="10" y1="10" x2="40" y2="10"/></svg>