<svg id="Слой_1" data-name="Слой 1" xmlns="http://www.w3.org/2000/svg" viewBox="0 0 68.43 68.48"><defs><style>.cls-1{fill:#fff;}</style></defs><title>more</title><path class="cls-1" d="M50.62,28.72c-.32,12-9.76,22-22,22a22.21,22.21,0,0,1-22-22,22.19,22.19,0,0,1,22-22c12.24,0,21.68,10,22,22,.1,3.85,6.1,3.87,6,0-.31-11.57-7.12-22-18.07-26.17A28.23,28.23,0,0,0,7.11,10.82C-9.2,30.48,8.36,60.63,33.48,56.29,46.95,54,56.26,42.13,56.62,28.72,56.73,24.86,50.73,24.86,50.62,28.72Z" transform="translate(-0.79 -0.76)"/><path class="cls-1" d="M44.52,50.92l17,17c4.1,4.1,10.47-2.26,6.36-6.36l-17-17c-4.1-4.1-10.47,2.26-6.36,6.36Z" transform="translate(-0.79 -0.76)"/><path class="cls-1" d="M17.71,31.73h22c3.86,0,3.87-6,0-6h-22c-3.86,0-3.87,6,0,6Z" transform="translate(-0.79 -0.76)"/><path class="cls-1" d="M25.71,17.73v22c0,3.86,6,3.87,6,0v-22c0-3.86-6-3.87-6,0Z" transform="translate(-0.79 -0.76)"/></svg>